<?xml version="1.0" encoding="UTF-8"?>
<svg width="2000px" height="500px" viewBox="0 0 2000 500" version="1.1" xmlns="http://www.w3.org/2000/svg" xmlns:xlink="http://www.w3.org/1999/xlink">
    <!-- Generator: Sketch 57.1 (83088) - https://sketch.com -->
    <title>Banner</title>
    <desc>Created with Sketch.</desc>
    <defs>
        <linearGradient x1="50%" y1="5%" x2="50%" y2="95%" id="linearGradient-1">
            <stop stop-color="#FFC400" offset="0%"></stop>
            <stop stop-color="#DB2351" offset="100%"></stop>
        </linearGradient>
        <linearGradient x1="71.248112%" y1="26.0442099%" x2="28.7526376%" y2="73.9535903%" id="linearGradient-2">
            <stop stop-color="#DB2351" offset="0%"></stop>
            <stop stop-color="#FFC400" offset="100%"></stop>
        </linearGradient>
    </defs>
    <g id="Banner" stroke="none" stroke-width="1" fill="none" fill-rule="evenodd">
        <g id="Group" transform="translate(58.000000, 50.000000)">
            <g id="Icon">
                <g>
                    <path d="M133.555915,316.88817 L184,216 L140.213203,216 C131.928932,216 125.213203,209.284271 125.213203,201 C125.213203,197.021753 126.793556,193.206444 129.606602,190.393398 L255.115666,64.8843344 C245.495039,60.9609864 235.363112,58.0314268 224.848681,56.2218891 L207.048785,74.0129935 C203.148808,77.9110445 196.848845,77.9110445 192.948868,74.0129935 L175.148972,56.2218891 C129.849238,63.918041 91.6494623,92.6036982 70.8495843,131.884058 L82.2495174,154.272864 C84.7495028,159.170415 82.7495145,165.167416 77.8495433,167.666167 L55.4496835,179.06047 C54.4496835,185.857071 53.9496835,192.753623 53.9496835,199.850075 C53.9496835,239.430285 69.7495908,275.312344 95.6494388,301.5992 L120.449293,297.701149 C125.849262,296.801599 130.949232,300.49975 131.849226,305.997001 L133.555915,316.88817 Z M144.956279,335.043721 C161.974762,342.024881 180.633562,345.877061 200.148826,345.877061 C223.24869,345.877061 245.148562,340.47976 264.548448,330.884558 L268.448425,305.997001 C269.24842,300.5997 274.34839,296.801599 279.848358,297.701149 L304.648213,301.5992 C330.148063,275.312344 345.94797,239.430285 346.04797,199.850075 C346.04797,192.753623 345.547973,185.857071 344.547979,179.06047 L322.14811,167.666167 C317.148139,165.167416 315.24815,159.170415 317.748136,154.272864 L329.148069,131.884058 C316.023856,107.099114 295.972221,86.5720333 271.580615,72.8387708 L216,184 L259.786797,184 C268.071068,184 274.786797,190.715729 274.786797,199 C274.786797,202.978247 273.206444,206.793556 270.393398,209.606602 L144.956279,335.043721 Z M397.347669,194.952524 C400.847648,197.051474 400.747649,202.648676 397.847666,204.747626 L381.047764,215.142429 L380.547767,220.03998 L394.947683,233.533233 C397.947665,236.231884 396.847672,241.729135 393.047694,243.128436 L374.547803,250.024988 L373.147811,254.822589 L384.647743,270.814593 C386.94773,274.112944 384.847742,279.310345 380.847766,279.910045 L361.34788,283.108446 L359.047893,287.506247 L367.247845,305.497251 C368.847836,309.195402 365.747854,313.893053 361.747878,313.693153 L341.947994,312.993503 L338.848012,316.791604 L343.347986,336.081959 C344.24798,339.98001 340.248004,343.878061 336.348027,342.978511 L317.148139,338.48076 L313.348162,341.57921 L314.048157,361.369315 C314.148157,365.367316 309.448184,368.565717 305.848206,366.866567 L287.848311,358.670665 L283.448337,360.969515 L280.248356,380.45977 C279.54836,384.457771 274.44839,386.556722 271.148409,384.257871 L255.148503,372.763618 L250.348531,374.162919 L243.448572,392.653673 C242.04858,396.351824 236.548612,397.451274 233.848628,394.552724 L220.348707,380.15992 L215.448736,380.65967 L205.048797,397.451274 C202.948809,400.849575 197.348842,400.849575 195.248854,397.451274 L184.848915,380.65967 L179.948944,380.15992 L166.449023,394.552724 C163.749039,397.551224 158.249072,396.351824 156.84908,392.653673 L149.94912,374.162919 L145.149148,372.763618 L129.149242,384.257871 C125.849262,386.556722 120.649292,384.457771 120.049296,380.45977 L116.849314,360.969515 L112.44934,358.670665 L94.4494459,366.866567 C90.7494676,368.465767 86.0494951,365.367316 86.249494,361.369315 L86.9494899,341.57921 L83.1495122,338.48076 L63.9496248,342.978511 C60.0496477,343.978011 56.0496712,339.98001 56.9496659,336.081959 L61.4496395,316.791604 L58.3496577,312.993503 L38.5497738,313.693153 C34.5497973,313.793103 31.3498161,309.095452 33.0498061,305.497251 L41.249758,287.506247 L38.9497715,283.108446 L19.4498859,279.910045 C15.4499094,279.310345 13.3499217,274.112944 15.6499082,270.814593 L27.1498407,254.822589 L25.7498489,250.024988 L7.24995746,243.128436 C3.54997917,241.729135 2.44998563,236.231884 5.34996861,233.533233 L19.8498835,220.03998 L19.3498865,215.142429 L2.54998504,204.747626 C-0.849995013,202.648676 -0.849995013,197.051474 2.54998504,194.952524 L19.0498882,184.857571 L19.5498853,179.96002 L5.14996978,166.466767 C2.2499868,163.668166 3.34998035,158.170915 7.04995864,156.771614 L25.5498501,149.875062 L26.9498419,145.077461 L15.4499094,129.085457 C13.1499228,125.787106 15.2499105,120.589705 19.2498871,119.990005 L38.7497727,116.791604 L41.0497592,112.393803 L32.8498073,94.4027986 C31.2498167,90.7046477 34.3497985,86.1069465 38.349775,86.2068966 L58.1496588,86.9065467 L61.2496406,83.1084458 L56.749667,63.918041 C55.8496723,60.01999 59.8496489,56.021989 63.749626,56.9215392 L82.9495133,61.4192904 L86.749491,58.3208396 L86.0494951,38.5307346 C85.9494957,34.5327336 90.6494682,31.3343328 94.249447,33.0334833 L112.249341,41.2293853 L116.649316,38.9305347 L119.849297,19.4402799 C120.449293,15.4422789 125.649263,13.3433283 128.949243,15.6421789 L144.94915,27.1364318 L149.749121,25.7371314 L156.649081,7.24637681 C158.049073,3.54822589 163.54904,2.44877561 166.249025,5.34732634 L179.748945,19.84008 L184.648917,19.3403298 L195.048856,2.54872564 C197.148843,-0.849575212 202.74881,-0.849575212 204.848798,2.54872564 L214.948739,19.0404798 L219.84871,19.5402299 L233.348631,5.04747626 C236.048615,2.14892554 241.548583,3.14842579 242.948575,6.94652674 L249.848534,25.4372814 L254.648506,26.8365817 L270.648412,15.3423288 C273.948393,13.0434783 279.148362,15.2423788 279.748359,19.1404298 L282.94834,38.6306847 L287.348314,40.9295352 L305.348209,32.7336332 C309.048187,31.1344328 313.748159,34.2328836 313.54816,38.2308846 L312.848165,58.0209895 L316.648142,61.1194403 L335.84803,56.6216892 C339.848006,55.7221389 343.747983,59.7201399 342.847989,63.6181909 L338.348015,82.8085957 L341.447997,86.6066967 L361.247881,85.9070465 C365.347856,85.8070965 368.447838,90.4047976 366.747848,94.1029485 L358.547896,112.093953 L360.847883,116.491754 L380.347768,119.690155 C384.347745,120.389805 386.447733,125.487256 384.147746,128.785607 L372.647814,144.777611 L374.047805,149.575212 L392.547697,156.471764 C396.247675,157.871064 397.347669,163.468266 394.447686,166.166917 L380.04777,179.66017 L380.547767,184.557721 L397.347669,194.952524 Z M341.747995,141.17941 C335.448032,143.278361 332.048052,149.975012 334.04804,156.271864 C336.048028,162.568716 342.847989,165.967016 349.147952,163.968016 C355.447915,161.969015 358.847895,155.172414 356.847906,148.875562 C354.847918,142.578711 348.047958,139.18041 341.747995,141.17941 Z M187.948897,46.9265367 C187.948897,53.5232384 193.348866,58.9205397 199.948827,58.9205397 C206.548788,58.9205397 211.948756,53.5232384 211.948756,46.9265367 C211.948756,40.3298351 206.548788,34.9325337 199.948827,34.9325337 C193.348866,34.9325337 187.948897,40.3298351 187.948897,46.9265367 Z M50.7497023,163.968016 C57.0496653,166.066967 63.749626,162.568716 65.8496137,156.271864 C67.9496013,149.975012 64.4496219,143.278361 58.1496588,141.17941 C51.8496958,139.08046 45.1497351,142.578711 43.0497474,148.875562 C40.9497597,155.172414 44.4497392,161.969015 50.7497023,163.968016 Z M119.749297,330.584708 C123.649275,325.287356 122.449282,317.691154 117.049313,313.793103 C111.649345,309.895052 104.149389,311.094453 100.249412,316.491754 C96.3494347,321.889055 97.5494277,329.385307 102.949396,333.283358 C108.349364,337.181409 115.84932,335.982009 119.749297,330.584708 Z M299.548243,316.491754 C295.648265,311.194403 288.148309,309.995002 282.748341,313.793103 C277.348373,317.691154 276.14838,325.187406 280.048357,330.584708 C283.948334,335.982009 291.44829,337.181409 296.848258,333.283358 C302.248227,329.385307 303.44822,321.889055 299.548243,316.491754 Z" id="Cog" fill="url(#linearGradient-1)" fill-rule="nonzero"></path>
                    <path d="M184.010014,215.989986 C162.993201,215.989986 141.976389,215.989986 120.959577,215.989986 L120.959577,215.989986 C117.093584,215.989986 113.959577,212.85598 113.959577,208.989986 C113.959577,207.133471 114.697075,205.352994 116.009829,204.040239 C149.336548,170.71352 182.663267,137.386801 215.989986,104.060082 C184.010014,152.030041 184.010014,184.010014 215.989986,184.010014 C237.006799,184.010014 258.023611,184.010014 279.040423,184.010014 L279.040423,184.010014 C282.906416,184.010014 286.040423,187.14402 286.040423,191.010014 C286.040423,192.866529 285.302925,194.647006 283.990171,195.959761 C250.663452,229.28648 217.336733,262.613199 184.010014,295.939918 C215.989986,247.969959 215.989986,215.989986 184.010014,215.989986 Z" id="Path-2" fill="url(#linearGradient-2)" fill-rule="nonzero"></path>
                </g>
            </g>
            <path d="M470.272565,214 L484.88194,214 L488.866315,233.84375 C490.064238,235.302091 492.264736,236.617182 495.467878,237.789062 C498.671019,238.960943 502.538167,239.546875 507.06944,239.546875 C513.788224,239.546875 518.684008,238.101577 521.75694,235.210938 C524.829872,232.320298 526.366315,228.375025 526.366315,223.375 C526.366315,220.666653 525.767363,218.231782 524.56944,216.070312 C523.371517,213.908843 521.639764,211.903655 519.374128,210.054688 C517.108491,208.20572 514.335081,206.421884 511.053815,204.703125 C507.772549,202.984366 504.074669,201.161468 499.960065,199.234375 C497.928805,198.29687 495.754347,197.203131 493.436628,195.953125 C491.118908,194.703119 488.840285,193.270841 486.60069,191.65625 C484.361095,190.041659 482.199659,188.21876 480.116315,186.1875 C478.032971,184.15624 476.210073,181.877617 474.647565,179.351562 C473.085057,176.825508 471.83507,174.039078 470.897565,170.992188 C469.96006,167.945297 469.491315,164.598977 469.491315,160.953125 C469.491315,156.630187 470.337661,152.515645 472.030378,148.609375 C473.723094,144.703105 476.288173,141.26564 479.72569,138.296875 C483.163207,135.32811 487.486081,132.971363 492.69444,131.226562 C497.902799,129.481762 504.048571,128.609375 511.13194,128.609375 C515.559045,128.609375 519.582443,128.88281 523.202253,129.429688 C526.822062,129.976565 530.038176,130.588538 532.85069,131.265625 C535.663204,131.942712 538.072034,132.593747 540.077253,133.21875 C542.082471,133.843753 543.684017,134.208333 544.88194,134.3125 L543.866315,162.4375 L529.647565,162.4375 L525.81944,143.375 C525.454855,142.906248 524.855903,142.437502 524.022565,141.96875 C523.189228,141.499998 522.160592,141.070314 520.936628,140.679688 C519.712663,140.289061 518.332469,139.976564 516.796003,139.742188 C515.259536,139.507811 513.631949,139.390625 511.91319,139.390625 C508.788174,139.390625 506.131951,139.768225 503.94444,140.523438 C501.756929,141.27865 499.960072,142.307285 498.553815,143.609375 C497.147558,144.911465 496.131943,146.473949 495.50694,148.296875 C494.881937,150.119801 494.56944,152.072906 494.56944,154.15625 C494.56944,157.072931 495.285579,159.677072 496.717878,161.96875 C498.150176,164.260428 500.116303,166.382803 502.616315,168.335938 C505.116328,170.289072 508.059006,172.164054 511.44444,173.960938 C514.829874,175.757821 518.47567,177.619782 522.38194,179.546875 C525.663206,181.21355 529.100672,183.075511 532.69444,185.132812 C536.288208,187.190114 539.582446,189.624986 542.577253,192.4375 C545.572059,195.250014 548.045993,198.50519 549.999128,202.203125 C551.952262,205.90106 552.928815,210.171851 552.928815,215.015625 C552.928815,217.671888 552.616318,220.393215 551.991315,223.179688 C551.366312,225.96616 550.337676,228.687487 548.905378,231.34375 C547.473079,234.000013 545.611118,236.499988 543.31944,238.84375 C541.027762,241.187512 538.21529,243.244783 534.88194,245.015625 C531.54859,246.786467 527.6554,248.192703 523.202253,249.234375 C518.749105,250.276047 513.65801,250.796875 507.928815,250.796875 C503.085041,250.796875 498.566857,250.445316 494.374128,249.742188 C490.181398,249.039059 486.418415,248.257817 483.085065,247.398438 C479.751715,246.539058 476.88716,245.731775 474.491315,244.976562 C472.09547,244.22135 470.24653,243.791667 468.94444,243.6875 L470.272565,214 Z M575.18576,173.296875 L565.576385,173.296875 L565.576385,164.15625 C565.888887,164.052083 566.51388,163.804689 567.451385,163.414062 C568.38889,163.023436 569.365442,162.606773 570.381073,162.164062 C571.396703,161.721352 572.334193,161.304689 573.193573,160.914062 C574.052952,160.523436 574.560759,160.276042 574.71701,160.171875 C575.602431,159.286454 576.461798,158.257818 577.295135,157.085938 C578.128473,155.914057 578.935756,154.416676 579.71701,152.59375 C580.185762,151.604162 580.680549,150.445319 581.201385,149.117188 C581.722221,147.789056 582.243049,146.395841 582.763885,144.9375 C583.284721,143.479159 583.779508,142.033861 584.24826,140.601562 C584.717012,139.169264 585.133675,137.828131 585.49826,136.578125 L599.951385,136.578125 L600.65451,160.09375 L624.09201,160.09375 L624.09201,173.296875 L600.81076,173.296875 L600.81076,215.640625 C600.81076,219.963563 600.875864,223.348946 601.006073,225.796875 C601.136281,228.244804 601.448778,230.067702 601.943573,231.265625 C602.438367,232.463548 603.193567,233.218748 604.209198,233.53125 C605.224828,233.843752 606.618043,234 608.388885,234 L608.46701,234 C611.175357,234 613.857622,233.739586 616.513885,233.21875 C619.170148,232.697914 621.357626,232.177086 623.076385,231.65625 L623.15451,231.65625 L626.513885,241.34375 C625.159712,242.489589 623.375875,243.60937 621.162323,244.703125 C618.94877,245.79688 616.500878,246.773433 613.818573,247.632812 C611.136267,248.492192 608.297754,249.182289 605.302948,249.703125 C602.308141,250.223961 599.3264,250.484375 596.357635,250.484375 L596.201385,250.484375 C589.118016,250.484375 583.844631,248.895849 580.381073,245.71875 C576.917514,242.541651 575.18576,237.567742 575.18576,230.796875 L575.18576,173.296875 Z M635.95833,224.078125 C635.95833,219.026016 637.195297,214.65106 639.669268,210.953125 C642.143238,207.25519 645.632787,204.182304 650.138018,201.734375 C654.643248,199.286446 660.085902,197.450527 666.466143,196.226562 C672.846383,195.002598 679.942666,194.338542 687.755205,194.234375 L687.755205,190.953125 C687.755205,188.244778 687.546874,185.87501 687.130205,183.84375 C686.713536,181.81249 685.919273,180.119798 684.747393,178.765625 C683.575512,177.411452 681.960944,176.408857 679.903643,175.757812 C677.846341,175.106768 675.177096,174.78125 671.89583,174.78125 C668.874982,174.78125 666.049489,174.989581 663.419268,175.40625 C660.789046,175.822919 658.328133,176.343747 656.036455,176.96875 C653.744777,177.593753 651.648444,178.27083 649.747393,179 C647.846341,179.72917 646.114588,180.432288 644.55208,181.109375 L644.473955,181.109375 L639.39583,170.5625 C640.437502,169.677079 642.195297,168.531257 644.669268,167.125 C647.143238,165.718743 650.111959,164.338548 653.575518,162.984375 C657.039076,161.630202 660.893205,160.471359 665.138018,159.507812 C669.38283,158.544266 673.770807,158.0625 678.30208,158.0625 C684.552111,158.0625 689.786434,158.661452 694.005205,159.859375 C698.223976,161.057298 701.596338,162.95832 704.122393,165.5625 C706.648447,168.16668 708.45833,171.526021 709.55208,175.640625 C710.645835,179.755229 711.192705,184.729137 711.192705,190.5625 L711.192705,238.453125 L719.70833,238.453125 L719.70833,248.375 C718.718742,248.583334 717.416671,248.830728 715.80208,249.117188 C714.187489,249.403647 712.429694,249.690103 710.528643,249.976562 C708.627591,250.263022 706.687507,250.497395 704.70833,250.679688 C702.729153,250.86198 700.880214,250.953125 699.161455,250.953125 C697.182278,250.953125 695.515628,250.835939 694.161455,250.601562 C692.807282,250.367186 691.726563,249.911462 690.919268,249.234375 C690.111972,248.557288 689.539061,247.632818 689.200518,246.460938 C688.861974,245.289057 688.692705,243.791676 688.692705,241.96875 L688.692705,239.546875 C687.651033,240.744798 686.335942,241.994785 684.747393,243.296875 C683.158843,244.598965 681.296882,245.80989 679.161455,246.929688 C677.026028,248.049485 674.630218,248.973955 671.973955,249.703125 C669.317692,250.432295 666.401054,250.796875 663.223955,250.796875 C659.578103,250.796875 656.101576,250.223964 652.794268,249.078125 C649.486959,247.932286 646.583343,246.239595 644.08333,244 C641.583318,241.760405 639.604171,238.973975 638.14583,235.640625 C636.687489,232.307275 635.95833,228.453147 635.95833,224.078125 Z M663.067705,221.1875 C663.067705,226.083358 664.200506,229.794258 666.466143,232.320312 C668.731779,234.846367 671.687478,236.109375 675.33333,236.109375 C676.218751,236.109375 677.208325,235.992189 678.30208,235.757812 C679.395835,235.523436 680.502595,235.184898 681.622393,234.742188 C682.74219,234.299477 683.835929,233.765628 684.903643,233.140625 C685.971356,232.515622 686.921868,231.812504 687.755205,231.03125 L687.755205,204.78125 C683.067682,204.78125 679.135429,205.249995 675.95833,206.1875 C672.781231,207.125005 670.242194,208.361971 668.341143,209.898438 C666.440091,211.434904 665.085938,213.179678 664.278643,215.132812 C663.471347,217.085947 663.067705,219.104156 663.067705,221.1875 Z M740.090275,173.296875 L730.4809,173.296875 L730.4809,164.15625 C730.793402,164.052083 731.418395,163.804689 732.3559,163.414062 C733.293405,163.023436 734.269957,162.606773 735.285588,162.164062 C736.301218,161.721352 737.238708,161.304689 738.098088,160.914062 C738.957467,160.523436 739.465274,160.276042 739.621525,160.171875 C740.506946,159.286454 741.366313,158.257818 742.19965,157.085938 C743.032988,155.914057 743.840271,154.416676 744.621525,152.59375 C745.090277,151.604162 745.585064,150.445319 746.1059,149.117188 C746.626736,147.789056 747.147564,146.395841 747.6684,144.9375 C748.189236,143.479159 748.684023,142.033861 749.152775,140.601562 C749.621527,139.169264 750.03819,137.828131 750.402775,136.578125 L764.8559,136.578125 L765.559025,160.09375 L788.996525,160.09375 L788.996525,173.296875 L765.715275,173.296875 L765.715275,215.640625 C765.715275,219.963563 765.780379,223.348946 765.910588,225.796875 C766.040796,228.244804 766.353293,230.067702 766.848088,231.265625 C767.342882,232.463548 768.098082,233.218748 769.113713,233.53125 C770.129343,233.843752 771.522558,234 773.2934,234 L773.371525,234 C776.079872,234 778.762137,233.739586 781.4184,233.21875 C784.074663,232.697914 786.262141,232.177086 787.9809,231.65625 L788.059025,231.65625 L791.4184,241.34375 C790.064227,242.489589 788.28039,243.60937 786.066838,244.703125 C783.853285,245.79688 781.405393,246.773433 778.723088,247.632812 C776.040782,248.492192 773.202269,249.182289 770.207463,249.703125 C767.212656,250.223961 764.230915,250.484375 761.26215,250.484375 L761.1059,250.484375 C754.022531,250.484375 748.749146,248.895849 745.285588,245.71875 C741.822029,242.541651 740.090275,237.567742 740.090275,230.796875 L740.090275,173.296875 Z M802.34722,238.53125 L812.81597,236.96875 L812.81597,176.96875 L802.269095,173.765625 L802.269095,161.8125 L833.050345,157.90625 L833.44097,157.90625 L838.28472,161.34375 L838.28472,237.046875 L848.28472,238.53125 L848.28472,249 L802.34722,249 L802.34722,238.53125 Z M823.75347,145.71875 C821.774293,145.71875 819.964416,145.393232 818.323783,144.742188 C816.683149,144.091143 815.263893,143.179693 814.06597,142.007812 C812.868047,140.835932 811.943577,139.455737 811.292533,137.867188 C810.641488,136.278638 810.31597,134.572926 810.31597,132.75 C810.31597,130.666656 810.641488,128.687509 811.292533,126.8125 C811.943577,124.937491 812.907109,123.296882 814.183158,121.890625 C815.459206,120.484368 817.034711,119.377608 818.90972,118.570312 C820.784729,117.763017 822.920125,117.359375 825.31597,117.359375 L825.394095,117.359375 C827.685773,117.359375 829.703982,117.710934 831.448783,118.414062 C833.193583,119.117191 834.664922,120.067702 835.862845,121.265625 C837.060768,122.463548 837.972217,123.856763 838.59722,125.445312 C839.222223,127.033862 839.53472,128.713533 839.53472,130.484375 C839.53472,132.619802 839.209202,134.61197 838.558158,136.460938 C837.907113,138.309905 836.93056,139.924472 835.62847,141.304688 C834.32638,142.684903 832.698792,143.765621 830.745658,144.546875 C828.792523,145.328129 826.487858,145.71875 823.831595,145.71875 L823.75347,145.71875 Z M862.885415,205.484375 C862.885415,198.401006 863.966133,191.929717 866.127603,186.070312 C868.289072,180.210908 871.361958,175.184917 875.346353,170.992188 C879.330747,166.799458 884.148408,163.544282 889.799478,161.226562 C895.450547,158.908843 901.765588,157.75 908.74479,157.75 C912.182307,157.75 915.268214,157.971352 918.002603,158.414062 C920.736991,158.856773 923.184883,159.35156 925.346353,159.898438 C927.507822,160.445315 929.408844,160.992185 931.049478,161.539062 C932.690111,162.08594 934.187492,162.437499 935.541665,162.59375 L934.447915,190.328125 L918.74479,190.328125 L914.68229,173.609375 C914.10937,172.046867 913.054694,170.914066 911.518228,170.210938 C909.981761,169.507809 908.223967,169.15625 906.24479,169.15625 C903.901028,169.15625 901.739592,169.677078 899.760415,170.71875 C897.781238,171.760422 896.075526,173.492175 894.643228,175.914062 C893.210929,178.33595 892.078128,181.526022 891.24479,185.484375 C890.411453,189.442728 889.99479,194.312471 889.99479,200.09375 C889.942706,206.135447 890.424472,211.356749 891.440103,215.757812 C892.455733,220.158876 893.874989,223.804673 895.697915,226.695312 C897.520841,229.585952 899.682278,231.734368 902.18229,233.140625 C904.682303,234.546882 907.41665,235.25 910.385415,235.25 C912.833344,235.25 915.098946,235.06771 917.18229,234.703125 C919.265634,234.33854 921.192698,233.856774 922.96354,233.257812 C924.734382,232.658851 926.348949,231.981775 927.80729,231.226562 C929.265631,230.47135 930.593742,229.703129 931.791665,228.921875 L936.08854,238.375 C935.046868,239.572923 933.510425,240.888014 931.479165,242.320312 C929.447905,243.752611 927.039075,245.093744 924.252603,246.34375 C921.46613,247.593756 918.380224,248.648433 914.99479,249.507812 C911.609356,250.367192 908.041684,250.796875 904.291665,250.796875 C897.052045,250.796875 890.828149,249.651053 885.61979,247.359375 C880.411431,245.067697 876.127619,241.903666 872.768228,237.867188 C869.408836,233.830709 866.934902,229.052111 865.346353,223.53125 C863.757803,218.010389 862.937499,211.994824 862.885415,205.484375 Z M976.001735,238.53125 L985.376735,236.5 L1021.47049,129.546875 L1049.04861,129.546875 L1085.37674,236.578125 L1094.43924,238.53125 L1094.43924,249 L1044.98611,249 L1044.98611,238.53125 L1056.23611,236.5 L1050.61111,217.203125 L1011.31424,217.203125 L1005.84549,236.8125 L1018.26736,238.53125 L1018.26736,249 L976.157985,249 L976.001735,238.53125 Z M1047.09549,205.171875 L1032.95486,156.8125 L1030.53299,145.796875 L1028.11111,156.8125 L1014.67361,205.171875 L1047.09549,205.171875 Z M1104.74306,223.0625 L1119.74306,223.0625 L1123.72743,235.25 C1124.09202,235.875003 1124.74305,236.499997 1125.68056,237.125 C1126.61806,237.750003 1127.72482,238.309893 1129.00087,238.804688 C1130.27692,239.299482 1131.67013,239.690103 1133.18056,239.976562 C1134.69098,240.263022 1136.20138,240.40625 1137.71181,240.40625 C1140.10765,240.40625 1142.1519,240.132815 1143.84462,239.585938 C1145.53733,239.03906 1146.90451,238.29688 1147.94618,237.359375 C1148.98785,236.42187 1149.74305,235.328131 1150.21181,234.078125 C1150.68056,232.828119 1150.91493,231.526048 1150.91493,230.171875 C1150.91493,228.192698 1150.30296,226.434904 1149.07899,224.898438 C1147.85503,223.361971 1146.14932,221.903653 1143.96181,220.523438 C1141.77429,219.143222 1139.15713,217.763028 1136.11024,216.382812 C1133.06335,215.002597 1129.74307,213.479175 1126.14931,211.8125 C1122.6597,210.249992 1119.5738,208.570321 1116.89149,206.773438 C1114.20919,204.976554 1111.96963,202.945324 1110.17274,200.679688 C1108.37586,198.414051 1107.00868,195.875014 1106.07118,193.0625 C1105.13368,190.249986 1104.66493,187.098976 1104.66493,183.609375 C1104.66493,179.963523 1105.47221,176.578141 1107.08681,173.453125 C1108.7014,170.328109 1111.0321,167.632824 1114.07899,165.367188 C1117.12588,163.101551 1120.83678,161.317715 1125.21181,160.015625 C1129.58683,158.713535 1134.56074,158.0625 1140.13368,158.0625 C1144.09203,158.0625 1147.62064,158.283852 1150.71962,158.726562 C1153.81859,159.169273 1156.57898,159.66406 1159.00087,160.210938 C1161.42275,160.757815 1163.53211,161.291664 1165.32899,161.8125 C1167.12588,162.333336 1168.70138,162.697916 1170.05556,162.90625 L1170.05556,184.234375 L1155.99306,184.234375 L1151.93056,172.75 C1151.40972,171.708328 1150.18577,170.718755 1148.25868,169.78125 C1146.33159,168.843745 1143.88369,168.375 1140.91493,168.375 C1136.53991,168.375 1133.28473,169.286449 1131.14931,171.109375 C1129.01388,172.932301 1127.94618,175.223945 1127.94618,177.984375 C1127.94618,180.119802 1128.51909,181.955721 1129.66493,183.492188 C1130.81077,185.028654 1132.33419,186.408848 1134.23524,187.632812 C1136.13629,188.856777 1138.31075,189.989578 1140.75868,191.03125 C1143.20661,192.072922 1145.73263,193.166661 1148.33681,194.3125 C1151.77432,195.822924 1155.12064,197.437491 1158.37587,199.15625 C1161.63109,200.875009 1164.52169,202.867176 1167.04774,205.132812 C1169.5738,207.398449 1171.61805,210.054672 1173.18056,213.101562 C1174.74306,216.148453 1175.52431,219.729146 1175.52431,223.84375 C1175.52431,227.541685 1174.79515,231.031234 1173.33681,234.3125 C1171.87846,237.593766 1169.65192,240.458321 1166.65712,242.90625 C1163.66231,245.354179 1159.87329,247.281243 1155.28993,248.6875 C1150.70657,250.093757 1145.26392,250.796875 1138.96181,250.796875 C1134.89928,250.796875 1131.11026,250.52344 1127.59462,249.976562 C1124.07897,249.429685 1120.87588,248.804691 1117.98524,248.101562 C1115.0946,247.398434 1112.52952,246.682295 1110.28993,245.953125 C1108.05034,245.223955 1106.2014,244.677085 1104.74306,244.3125 L1104.74306,223.0625 Z M1193.5625,223.0625 L1208.5625,223.0625 L1212.54688,235.25 C1212.91146,235.875003 1213.5625,236.499997 1214.5,237.125 C1215.4375,237.750003 1216.54426,238.309893 1217.82031,238.804688 C1219.09636,239.299482 1220.48958,239.690103 1222,239.976562 C1223.51042,240.263022 1225.02083,240.40625 1226.53125,240.40625 C1228.9271,240.40625 1230.97135,240.132815 1232.66406,239.585938 C1234.35678,239.03906 1235.72395,238.29688 1236.76562,237.359375 C1237.8073,236.42187 1238.5625,235.328131 1239.03125,234.078125 C1239.5,232.828119 1239.73438,231.526048 1239.73438,230.171875 C1239.73438,228.192698 1239.1224,226.434904 1237.89844,224.898438 C1236.67447,223.361971 1234.96876,221.903653 1232.78125,220.523438 C1230.59374,219.143222 1227.97658,217.763028 1224.92969,216.382812 C1221.8828,215.002597 1218.56252,213.479175 1214.96875,211.8125 C1211.47915,210.249992 1208.39324,208.570321 1205.71094,206.773438 C1203.02863,204.976554 1200.78907,202.945324 1198.99219,200.679688 C1197.1953,198.414051 1195.82813,195.875014 1194.89062,193.0625 C1193.95312,190.249986 1193.48438,187.098976 1193.48438,183.609375 C1193.48438,179.963523 1194.29166,176.578141 1195.90625,173.453125 C1197.52084,170.328109 1199.85155,167.632824 1202.89844,165.367188 C1205.94533,163.101551 1209.65623,161.317715 1214.03125,160.015625 C1218.40627,158.713535 1223.38018,158.0625 1228.95312,158.0625 C1232.91148,158.0625 1236.44009,158.283852 1239.53906,158.726562 C1242.63804,159.169273 1245.39843,159.66406 1247.82031,160.210938 C1250.2422,160.757815 1252.35155,161.291664 1254.14844,161.8125 C1255.94532,162.333336 1257.52083,162.697916 1258.875,162.90625 L1258.875,184.234375 L1244.8125,184.234375 L1240.75,172.75 C1240.22916,171.708328 1239.00522,170.718755 1237.07812,169.78125 C1235.15103,168.843745 1232.70314,168.375 1229.73438,168.375 C1225.35935,168.375 1222.10418,169.286449 1219.96875,171.109375 C1217.83332,172.932301 1216.76562,175.223945 1216.76562,177.984375 C1216.76562,180.119802 1217.33854,181.955721 1218.48438,183.492188 C1219.63021,185.028654 1221.15364,186.408848 1223.05469,187.632812 C1224.95574,188.856777 1227.1302,189.989578 1229.57812,191.03125 C1232.02605,192.072922 1234.55207,193.166661 1237.15625,194.3125 C1240.59377,195.822924 1243.94009,197.437491 1247.19531,199.15625 C1250.45054,200.875009 1253.34113,202.867176 1255.86719,205.132812 C1258.39324,207.398449 1260.43749,210.054672 1262,213.101562 C1263.56251,216.148453 1264.34375,219.729146 1264.34375,223.84375 C1264.34375,227.541685 1263.61459,231.031234 1262.15625,234.3125 C1260.69791,237.593766 1258.47137,240.458321 1255.47656,242.90625 C1252.48176,245.354179 1248.69273,247.281243 1244.10938,248.6875 C1239.52602,250.093757 1234.08336,250.796875 1227.78125,250.796875 C1223.71873,250.796875 1219.92971,250.52344 1216.41406,249.976562 C1212.89842,249.429685 1209.69533,248.804691 1206.80469,248.101562 C1203.91405,247.398434 1201.34897,246.682295 1199.10938,245.953125 C1196.86978,245.223955 1195.02084,244.677085 1193.5625,244.3125 L1193.5625,223.0625 Z M1279.33507,204.625 C1279.33507,197.281213 1280.37673,190.718779 1282.46007,184.9375 C1284.54341,179.156221 1287.49911,174.260437 1291.32726,170.25 C1295.1554,166.239563 1299.73869,163.166677 1305.07726,161.03125 C1310.41583,158.895823 1316.34025,157.828125 1322.8507,157.828125 C1333.9445,157.828125 1342.39494,160.640597 1348.20226,166.265625 C1354.00958,171.890653 1357.0434,179.859323 1357.30382,190.171875 C1357.30382,193.765643 1357.21268,196.890612 1357.03038,199.546875 C1356.84809,202.203138 1356.54861,204.572906 1356.13195,206.65625 L1305.6632,206.65625 C1305.9757,211.604191 1306.75694,215.861961 1308.00695,219.429688 C1309.25695,222.997414 1310.89756,225.927072 1312.92882,228.21875 C1314.96008,230.510428 1317.32985,232.20312 1320.0382,233.296875 C1322.74654,234.39063 1325.7413,234.9375 1329.02257,234.9375 C1331.10591,234.9375 1333.24131,234.729169 1335.42882,234.3125 C1337.61633,233.895831 1339.71266,233.361982 1341.71788,232.710938 C1343.7231,232.059893 1345.57204,231.343754 1347.26476,230.5625 C1348.95747,229.781246 1350.40277,229.026045 1351.6007,228.296875 L1356.13195,237.984375 C1354.88194,239.338548 1353.08508,240.770826 1350.74132,242.28125 C1348.39756,243.791674 1345.70227,245.171869 1342.65538,246.421875 C1339.60849,247.671881 1336.31425,248.713538 1332.77257,249.546875 C1329.23089,250.380212 1325.61113,250.796875 1321.9132,250.796875 C1314.41316,250.796875 1307.98093,249.664074 1302.61632,247.398438 C1297.25171,245.132801 1292.83769,241.95575 1289.37413,237.867188 C1285.91057,233.778625 1283.37154,228.908882 1281.75695,223.257812 C1280.14235,217.606743 1279.33507,211.395867 1279.33507,204.625 Z M1332.38195,195.953125 C1332.38195,195.119788 1332.39497,194.026048 1332.42101,192.671875 C1332.44705,191.317702 1332.46007,190.223962 1332.46007,189.390625 C1332.46007,186.369777 1332.26476,183.609387 1331.87413,181.109375 C1331.48351,178.609363 1330.80643,176.447926 1329.84288,174.625 C1328.87934,172.802074 1327.60331,171.382818 1326.01476,170.367188 C1324.42621,169.351557 1322.46008,168.84375 1320.11632,168.84375 C1318.08506,168.84375 1316.19706,169.20833 1314.45226,169.9375 C1312.70746,170.66667 1311.18403,172.033844 1309.88195,174.039062 C1308.57986,176.044281 1307.5382,178.80467 1306.75695,182.320312 C1305.97569,185.835955 1305.53299,190.38018 1305.42882,195.953125 L1332.38195,195.953125 Z M1373.54514,238.53125 L1383.85764,237.046875 L1383.85764,176.96875 L1374.40452,173.84375 L1374.40452,161.5 L1400.57639,157.90625 L1400.96702,157.90625 L1405.57639,161.34375 L1405.57639,165.875 L1405.18577,178.21875 L1405.57639,178.21875 C1405.88889,177.229162 1406.43576,176.031257 1407.21702,174.625 C1407.99827,173.218743 1408.98784,171.760424 1410.18577,170.25 C1411.38369,168.739576 1412.78992,167.242195 1414.40452,165.757812 C1416.01911,164.27343 1417.81596,162.932298 1419.79514,161.734375 C1421.77432,160.536452 1423.90971,159.57292 1426.20139,158.84375 C1428.49307,158.11458 1430.94096,157.75 1433.54514,157.75 C1434.89931,157.75 1436.11024,157.867186 1437.17795,158.101562 C1438.24567,158.335939 1439.06597,158.635415 1439.63889,159 L1439.63889,185.640625 C1437.92013,184.442702 1436.12327,183.544274 1434.24827,182.945312 C1432.37326,182.346351 1430.00349,182.046875 1427.13889,182.046875 C1423.02429,182.046875 1419.39151,182.489579 1416.24045,183.375 C1413.0894,184.260421 1410.73265,185.276036 1409.17014,186.421875 L1409.17014,236.96875 L1427.60764,238.609375 L1427.60764,249 L1373.54514,249 L1373.54514,238.53125 Z M1461.03646,173.296875 L1451.42709,173.296875 L1451.42709,164.15625 C1451.73959,164.052083 1452.36458,163.804689 1453.30209,163.414062 C1454.23959,163.023436 1455.21614,162.606773 1456.23177,162.164062 C1457.2474,161.721352 1458.18489,161.304689 1459.04427,160.914062 C1459.90365,160.523436 1460.41146,160.276042 1460.56771,160.171875 C1461.45313,159.286454 1462.3125,158.257818 1463.14584,157.085938 C1463.97917,155.914057 1464.78646,154.416676 1465.56771,152.59375 C1466.03646,151.604162 1466.53125,150.445319 1467.05209,149.117188 C1467.57292,147.789056 1468.09375,146.395841 1468.61459,144.9375 C1469.13542,143.479159 1469.63021,142.033861 1470.09896,140.601562 C1470.56771,139.169264 1470.98437,137.828131 1471.34896,136.578125 L1485.80209,136.578125 L1486.50521,160.09375 L1509.94271,160.09375 L1509.94271,173.296875 L1486.66146,173.296875 L1486.66146,215.640625 C1486.66146,219.963563 1486.72656,223.348946 1486.85677,225.796875 C1486.98698,228.244804 1487.29948,230.067702 1487.79427,231.265625 C1488.28907,232.463548 1489.04427,233.218748 1490.0599,233.53125 C1491.07553,233.843752 1492.46874,234 1494.23959,234 L1494.31771,234 C1497.02606,234 1499.70832,233.739586 1502.36459,233.21875 C1505.02085,232.697914 1507.20833,232.177086 1508.92709,231.65625 L1509.00521,231.65625 L1512.36459,241.34375 C1511.01041,242.489589 1509.22658,243.60937 1507.01302,244.703125 C1504.79947,245.79688 1502.35158,246.773433 1499.66927,247.632812 C1496.98697,248.492192 1494.14845,249.182289 1491.15365,249.703125 C1488.15884,250.223961 1485.1771,250.484375 1482.20834,250.484375 L1482.05209,250.484375 C1474.96872,250.484375 1469.69533,248.895849 1466.23177,245.71875 C1462.76821,242.541651 1461.03646,237.567742 1461.03646,230.796875 L1461.03646,173.296875 Z M1523.29341,238.53125 L1533.76216,236.96875 L1533.76216,176.96875 L1523.21528,173.765625 L1523.21528,161.8125 L1553.99653,157.90625 L1554.38716,157.90625 L1559.23091,161.34375 L1559.23091,237.046875 L1569.23091,238.53125 L1569.23091,249 L1523.29341,249 L1523.29341,238.53125 Z M1544.69966,145.71875 C1542.72048,145.71875 1540.9106,145.393232 1539.26997,144.742188 C1537.62933,144.091143 1536.21008,143.179693 1535.01216,142.007812 C1533.81423,140.835932 1532.88976,139.455737 1532.23872,137.867188 C1531.58767,136.278638 1531.26216,134.572926 1531.26216,132.75 C1531.26216,130.666656 1531.58767,128.687509 1532.23872,126.8125 C1532.88976,124.937491 1533.85329,123.296882 1535.12934,121.890625 C1536.40539,120.484368 1537.9809,119.377608 1539.85591,118.570312 C1541.73091,117.763017 1543.86631,117.359375 1546.26216,117.359375 L1546.34028,117.359375 C1548.63196,117.359375 1550.65017,117.710934 1552.39497,118.414062 C1554.13977,119.117191 1555.61111,120.067702 1556.80903,121.265625 C1558.00695,122.463548 1558.9184,123.856763 1559.54341,125.445312 C1560.16841,127.033862 1560.48091,128.713533 1560.48091,130.484375 C1560.48091,132.619802 1560.15539,134.61197 1559.50434,136.460938 C1558.8533,138.309905 1557.87674,139.924472 1556.57466,141.304688 C1555.27257,142.684903 1553.64498,143.765621 1551.69184,144.546875 C1549.73871,145.328129 1547.43404,145.71875 1544.77778,145.71875 L1544.69966,145.71875 Z M1582.97223,204.859375 C1582.97223,196.994752 1584.19617,190.1068 1586.6441,184.195312 C1589.09203,178.283825 1592.38627,173.37502 1596.52691,169.46875 C1600.66756,165.56248 1605.43314,162.632822 1610.82379,160.679688 C1616.21444,158.726553 1621.8524,157.75 1627.73785,157.75 C1634.45663,157.75 1640.44616,158.804677 1645.7066,160.914062 C1650.96704,163.023448 1655.4071,166.057272 1659.02691,170.015625 C1662.64672,173.973978 1665.42013,178.791638 1667.34723,184.46875 C1669.27432,190.145862 1670.23785,196.552048 1670.23785,203.6875 C1670.23785,211.812541 1669.0139,218.8307 1666.56598,224.742188 C1664.11805,230.653675 1660.83683,235.536439 1656.72223,239.390625 C1652.60762,243.244811 1647.84204,246.109366 1642.42535,247.984375 C1637.00866,249.859384 1631.35767,250.796875 1625.47223,250.796875 C1618.75344,250.796875 1612.76392,249.742198 1607.50348,247.632812 C1602.24303,245.523427 1597.80297,242.489603 1594.18316,238.53125 C1590.56335,234.572897 1587.78994,229.755237 1585.86285,224.078125 C1583.93576,218.401013 1582.97223,211.994827 1582.97223,204.859375 Z M1626.87848,239.625 C1632.24309,239.625 1636.2144,236.890652 1638.79254,231.421875 C1641.37068,225.953098 1642.65973,217.359434 1642.65973,205.640625 C1642.65973,199.703095 1642.37327,194.455752 1641.80035,189.898438 C1641.22743,185.341123 1640.28994,181.513036 1638.98785,178.414062 C1637.68576,175.315089 1636.01911,172.958341 1633.98785,171.34375 C1631.95659,169.729159 1629.45661,168.921875 1626.48785,168.921875 C1621.07116,168.921875 1617.03474,171.656223 1614.37848,177.125 C1611.72221,182.593777 1610.3941,191.187441 1610.3941,202.90625 C1610.3941,208.84378 1610.7066,214.091123 1611.3316,218.648438 C1611.9566,223.205752 1612.93316,227.033839 1614.26129,230.132812 C1615.58942,233.231786 1617.29513,235.588534 1619.37848,237.203125 C1621.46182,238.817716 1623.96179,239.625 1626.87848,239.625 Z M1687.72917,238.53125 L1696.79167,237.125 L1696.79167,176.96875 L1687.1823,173.84375 L1687.1823,161.5 L1715.38542,157.90625 L1715.77605,157.90625 L1720.07292,161.34375 L1720.07292,167.046875 L1719.91667,170.640625 C1721.63543,169.078117 1723.65364,167.541674 1725.97136,166.03125 C1728.28908,164.520826 1730.82811,163.192714 1733.58855,162.046875 C1736.34898,160.901036 1739.26561,159.976566 1742.33855,159.273438 C1745.41148,158.570309 1748.53645,158.21875 1751.71355,158.21875 C1756.55732,158.21875 1760.61978,158.856764 1763.90105,160.132812 C1767.18231,161.408861 1769.82551,163.453111 1771.83073,166.265625 C1773.83595,169.078139 1775.28125,172.723936 1776.16667,177.203125 C1777.05209,181.682314 1777.4948,187.151009 1777.4948,193.609375 L1777.4948,236.96875 L1786.8698,238.375 L1786.8698,249 L1743.4323,249 L1743.4323,238.53125 L1751.63542,237.046875 L1751.63542,193.609375 C1751.63542,189.91144 1751.46615,186.77345 1751.12761,184.195312 C1750.78906,181.617175 1750.15105,179.507821 1749.21355,177.867188 C1748.27604,176.226554 1747.01303,175.02865 1745.42448,174.273438 C1743.83593,173.518225 1741.79168,173.140625 1739.29167,173.140625 C1737.625,173.140625 1735.98439,173.335936 1734.3698,173.726562 C1732.7552,174.117189 1731.23178,174.624997 1729.79948,175.25 C1728.36718,175.875003 1727.02605,176.5651 1725.77605,177.320312 C1724.52604,178.075525 1723.45834,178.817705 1722.57292,179.546875 L1722.57292,237.046875 L1731.63542,238.53125 L1731.63542,249 L1687.72917,249 L1687.72917,238.53125 Z M1803.18924,223.0625 L1818.18924,223.0625 L1822.17362,235.25 C1822.5382,235.875003 1823.18924,236.499997 1824.12674,237.125 C1825.06424,237.750003 1826.171,238.309893 1827.44705,238.804688 C1828.7231,239.299482 1830.11632,239.690103 1831.62674,239.976562 C1833.13716,240.263022 1834.64757,240.40625 1836.15799,240.40625 C1838.55384,240.40625 1840.59809,240.132815 1842.2908,239.585938 C1843.98352,239.03906 1845.35069,238.29688 1846.39237,237.359375 C1847.43404,236.42187 1848.18924,235.328131 1848.65799,234.078125 C1849.12674,232.828119 1849.36112,231.526048 1849.36112,230.171875 C1849.36112,228.192698 1848.74914,226.434904 1847.52518,224.898438 C1846.30121,223.361971 1844.5955,221.903653 1842.40799,220.523438 C1840.22048,219.143222 1837.60332,217.763028 1834.55643,216.382812 C1831.50954,215.002597 1828.18926,213.479175 1824.59549,211.8125 C1821.10589,210.249992 1818.01998,208.570321 1815.33768,206.773438 C1812.65537,204.976554 1810.41581,202.945324 1808.61893,200.679688 C1806.82204,198.414051 1805.45487,195.875014 1804.51737,193.0625 C1803.57986,190.249986 1803.11112,187.098976 1803.11112,183.609375 C1803.11112,179.963523 1803.9184,176.578141 1805.53299,173.453125 C1807.14758,170.328109 1809.47829,167.632824 1812.52518,165.367188 C1815.57207,163.101551 1819.28297,161.317715 1823.65799,160.015625 C1828.03301,158.713535 1833.00692,158.0625 1838.57987,158.0625 C1842.53822,158.0625 1846.06683,158.283852 1849.1658,158.726562 C1852.26478,159.169273 1855.02517,159.66406 1857.44705,160.210938 C1859.86894,160.757815 1861.97829,161.291664 1863.77518,161.8125 C1865.57206,162.333336 1867.14757,162.697916 1868.50174,162.90625 L1868.50174,184.234375 L1854.43924,184.234375 L1850.37674,172.75 C1849.8559,171.708328 1848.63196,170.718755 1846.70487,169.78125 C1844.77777,168.843745 1842.32988,168.375 1839.36112,168.375 C1834.98609,168.375 1831.73092,169.286449 1829.59549,171.109375 C1827.46006,172.932301 1826.39237,175.223945 1826.39237,177.984375 C1826.39237,180.119802 1826.96528,181.955721 1828.11112,183.492188 C1829.25695,185.028654 1830.78038,186.408848 1832.68143,187.632812 C1834.58248,188.856777 1836.75694,189.989578 1839.20487,191.03125 C1841.65279,192.072922 1844.17881,193.166661 1846.78299,194.3125 C1850.22051,195.822924 1853.56683,197.437491 1856.82205,199.15625 C1860.07728,200.875009 1862.96787,202.867176 1865.49393,205.132812 C1868.01998,207.398449 1870.06423,210.054672 1871.62674,213.101562 C1873.18925,216.148453 1873.97049,219.729146 1873.97049,223.84375 C1873.97049,227.541685 1873.24133,231.031234 1871.78299,234.3125 C1870.32465,237.593766 1868.09811,240.458321 1865.1033,242.90625 C1862.1085,245.354179 1858.31947,247.281243 1853.73612,248.6875 C1849.15276,250.093757 1843.7101,250.796875 1837.40799,250.796875 C1833.34547,250.796875 1829.55645,250.52344 1826.0408,249.976562 C1822.52516,249.429685 1819.32207,248.804691 1816.43143,248.101562 C1813.54079,247.398434 1810.97571,246.682295 1808.73612,245.953125 C1806.49652,245.223955 1804.64758,244.677085 1803.18924,244.3125 L1803.18924,223.0625 Z" id="StaticAssertions" fill="#000000" fill-rule="nonzero"></path>
        </g>
    </g>
</svg>