<?xml version="1.0" encoding="UTF-8"?>
<svg width="400px" height="400px" viewBox="0 0 400 400" version="1.1" xmlns="http://www.w3.org/2000/svg" xmlns:xlink="http://www.w3.org/1999/xlink">
    <!-- Generator: Sketch 51.3 (57544) - http://www.bohemiancoding.com/sketch -->
    <title>Icon</title>
    <desc>Created with Sketch.</desc>
    <defs>
        <linearGradient x1="50%" y1="5%" x2="50%" y2="95%" id="linearGradient-1">
            <stop stop-color="#FFC400" offset="0%"></stop>
            <stop stop-color="#DB2351" offset="100%"></stop>
        </linearGradient>
        <linearGradient x1="71.248112%" y1="26.0442099%" x2="28.7526376%" y2="73.9535903%" id="linearGradient-2">
            <stop stop-color="#DB2351" offset="0%"></stop>
            <stop stop-color="#FFC400" offset="100%"></stop>
        </linearGradient>
    </defs>
    <g id="Icon" stroke="none" stroke-width="1" fill="none" fill-rule="evenodd">
        <path d="M133.555915,316.88817 L184,216 L140.213203,216 C131.928932,216 125.213203,209.284271 125.213203,201 C125.213203,197.021753 126.793556,193.206444 129.606602,190.393398 L255.115666,64.8843344 C245.495039,60.9609864 235.363112,58.0314268 224.848681,56.2218891 L207.048785,74.0129935 C203.148808,77.9110445 196.848845,77.9110445 192.948868,74.0129935 L175.148972,56.2218891 C129.849238,63.918041 91.6494623,92.6036982 70.8495843,131.884058 L82.2495174,154.272864 C84.7495028,159.170415 82.7495145,165.167416 77.8495433,167.666167 L55.4496747,179.06047 C54.4496805,185.857071 53.9496835,192.753623 53.9496835,199.850075 C53.9496835,239.430285 69.7495908,275.312344 95.6494388,301.5992 L120.449293,297.701149 C125.849262,296.801599 130.949232,300.49975 131.849226,305.997001 L133.555915,316.88817 Z M144.956279,335.043721 C161.974762,342.024881 180.633562,345.877061 200.148826,345.877061 C223.24869,345.877061 245.148562,340.47976 264.548448,330.884558 L268.448425,305.997001 C269.24842,300.5997 274.34839,296.801599 279.848358,297.701149 L304.648213,301.5992 C330.148063,275.312344 345.94797,239.430285 346.04797,199.850075 C346.04797,192.753623 345.547973,185.857071 344.547979,179.06047 L322.14811,167.666167 C317.148139,165.167416 315.24815,159.170415 317.748136,154.272864 L329.148069,131.884058 C316.023856,107.099114 295.972221,86.5720333 271.580615,72.8387708 L216,184 L259.786797,184 C268.071068,184 274.786797,190.715729 274.786797,199 C274.786797,202.978247 273.206444,206.793556 270.393398,209.606602 L144.956279,335.043721 Z M397.347669,194.952524 C400.847648,197.051474 400.747649,202.648676 397.847666,204.747626 L381.047764,215.142429 L380.547767,220.03998 L394.947683,233.533233 C397.947665,236.231884 396.847672,241.729135 393.047694,243.128436 L374.547803,250.024988 L373.147811,254.822589 L384.647743,270.814593 C386.94773,274.112944 384.847742,279.310345 380.847766,279.910045 L361.34788,283.108446 L359.047893,287.506247 L367.247845,305.497251 C368.847836,309.195402 365.747854,313.893053 361.747878,313.693153 L341.947994,312.993503 L338.848012,316.791604 L343.347986,336.081959 C344.24798,339.98001 340.248004,343.878061 336.348027,342.978511 L317.148139,338.48076 L313.348162,341.57921 L314.048157,361.369315 C314.148157,365.367316 309.448184,368.565717 305.848206,366.866567 L287.848311,358.670665 L283.448337,360.969515 L280.248356,380.45977 C279.54836,384.457771 274.44839,386.556722 271.148409,384.257871 L255.148503,372.763618 L250.348531,374.162919 L243.448572,392.653673 C242.04858,396.351824 236.548612,397.451274 233.848628,394.552724 L220.348707,380.15992 L215.448736,380.65967 L205.048797,397.451274 C202.948809,400.849575 197.348842,400.849575 195.248854,397.451274 L184.848915,380.65967 L179.948944,380.15992 L166.449023,394.552724 C163.749039,397.551224 158.249072,396.351824 156.84908,392.653673 L149.94912,374.162919 L145.149148,372.763618 L129.149242,384.257871 C125.849262,386.556722 120.649292,384.457771 120.049296,380.45977 L116.849314,360.969515 L112.44934,358.670665 L94.4494459,366.866567 C90.7494676,368.465767 86.0494951,365.367316 86.249494,361.369315 L86.9494899,341.57921 L83.1495122,338.48076 L63.9496248,342.978511 C60.0496477,343.978011 56.0496712,339.98001 56.9496659,336.081959 L61.4496395,316.791604 L58.3496577,312.993503 L38.5497738,313.693153 C34.5497973,313.793103 31.3498161,309.095452 33.0498061,305.497251 L41.249758,287.506247 L38.9497715,283.108446 L19.4498859,279.910045 C15.4499094,279.310345 13.3499217,274.112944 15.6499082,270.814593 L27.1498407,254.822589 L25.7498489,250.024988 L7.24995746,243.128436 C3.54997917,241.729135 2.44998563,236.231884 5.34996861,233.533233 L19.8498835,220.03998 L19.3498865,215.142429 L2.54998504,204.747626 C-0.849995013,202.648676 -0.849995013,197.051474 2.54998504,194.952524 L19.0498882,184.857571 L19.5498853,179.96002 L5.14996978,166.466767 C2.2499868,163.668166 3.34998035,158.170915 7.04995864,156.771614 L25.5498501,149.875062 L26.9498419,145.077461 L15.4499094,129.085457 C13.1499228,125.787106 15.2499105,120.589705 19.2498871,119.990005 L38.7497727,116.791604 L41.0497592,112.393803 L32.8498073,94.4027986 C31.2498167,90.7046477 34.3497985,86.1069465 38.349775,86.2068966 L58.1496588,86.9065467 L61.2496406,83.1084458 L56.749667,63.918041 C55.8496723,60.01999 59.8496489,56.021989 63.749626,56.9215392 L82.9495133,61.4192904 L86.749491,58.3208396 L86.0494951,38.5307346 C85.9494957,34.5327336 90.6494682,31.3343328 94.249447,33.0334833 L112.249341,41.2293853 L116.649316,38.9305347 L119.849297,19.4402799 C120.449293,15.4422789 125.649263,13.3433283 128.949243,15.6421789 L144.94915,27.1364318 L149.749121,25.7371314 L156.649081,7.24637681 C158.049073,3.54822589 163.54904,2.44877561 166.249025,5.34732634 L179.748945,19.84008 L184.648917,19.3403298 L195.048856,2.54872564 C197.148843,-0.849575212 202.74881,-0.849575212 204.848798,2.54872564 L214.948739,19.0404798 L219.84871,19.5402299 L233.348631,5.04747626 C236.048615,2.14892554 241.548583,3.14842579 242.948575,6.94652674 L249.848534,25.4372814 L254.648506,26.8365817 L270.648412,15.3423288 C273.948393,13.0434783 279.148362,15.2423788 279.748359,19.1404298 L282.94834,38.6306847 L287.348314,40.9295352 L305.348209,32.7336332 C309.048187,31.1344328 313.748159,34.2328836 313.54816,38.2308846 L312.848165,58.0209895 L316.648142,61.1194403 L335.84803,56.6216892 C339.848006,55.7221389 343.747983,59.7201399 342.847989,63.6181909 L338.348015,82.8085957 L341.447997,86.6066967 L361.247881,85.9070465 C365.347856,85.8070965 368.447838,90.4047976 366.747848,94.1029485 L358.547896,112.093953 L360.847883,116.491754 L380.347768,119.690155 C384.347745,120.389805 386.447733,125.487256 384.147746,128.785607 L372.647814,144.777611 L374.047805,149.575212 L392.547697,156.471764 C396.247675,157.871064 397.347669,163.468266 394.447686,166.166917 L380.04777,179.66017 L380.547767,184.557721 L397.347669,194.952524 Z M341.747995,141.17941 C335.448032,143.278361 332.048052,149.975012 334.04804,156.271864 C336.048028,162.568716 342.847989,165.967016 349.147952,163.968016 C355.447915,161.969015 358.847895,155.172414 356.847906,148.875562 C354.847918,142.578711 348.047958,139.18041 341.747995,141.17941 Z M187.948897,46.9265367 C187.948897,53.5232384 193.348866,58.9205397 199.948827,58.9205397 C206.548788,58.9205397 211.948756,53.5232384 211.948756,46.9265367 C211.948756,40.3298351 206.548788,34.9325337 199.948827,34.9325337 C193.348866,34.9325337 187.948897,40.3298351 187.948897,46.9265367 Z M50.7497023,163.968016 C57.0496653,166.066967 63.749626,162.568716 65.8496137,156.271864 C67.9496013,149.975012 64.4496219,143.278361 58.1496588,141.17941 C51.8496958,139.08046 45.1497351,142.578711 43.0497474,148.875562 C40.9497597,155.172414 44.4497392,161.969015 50.7497023,163.968016 Z M119.749297,330.584708 C123.649275,325.287356 122.449282,317.691154 117.049313,313.793103 C111.649345,309.895052 104.149389,311.094453 100.249412,316.491754 C96.3494347,321.889055 97.5494277,329.385307 102.949396,333.283358 C108.349364,337.181409 115.84932,335.982009 119.749297,330.584708 Z M299.548243,316.491754 C295.648265,311.194403 288.148309,309.995002 282.748341,313.793103 C277.348373,317.691154 276.14838,325.187406 280.048357,330.584708 C283.948334,335.982009 291.44829,337.181409 296.848258,333.283358 C302.248227,329.385307 303.44822,321.889055 299.548243,316.491754 Z" id="Cog" fill="url(#linearGradient-1)" fill-rule="nonzero"></path>
        <path d="M184.010014,215.989986 C162.993201,215.989986 141.976389,215.989986 120.959577,215.989986 L120.959577,215.989986 C117.093584,215.989986 113.959577,212.85598 113.959577,208.989986 C113.959577,207.133471 114.697075,205.352994 116.009829,204.040239 C149.336548,170.71352 182.663267,137.386801 215.989986,104.060082 C184.010014,152.030041 184.010014,184.010014 215.989986,184.010014 C237.006799,184.010014 258.023611,184.010014 279.040423,184.010014 L279.040423,184.010014 C282.906416,184.010014 286.040423,187.14402 286.040423,191.010014 C286.040423,192.866529 285.302925,194.647006 283.990171,195.959761 C250.663452,229.28648 217.336733,262.613199 184.010014,295.939918 C215.989986,247.969959 215.989986,215.989986 184.010014,215.989986 Z" id="Path-2" fill="url(#linearGradient-2)"></path>
    </g>
</svg>